<?xml version="1.0" encoding="UTF-8" standalone="no"?>
<svg
   viewBox="0 0 512 512"
   version="1.1"
   id="svg433"
   sodipodi:docname="enemy1.svg"
   inkscape:export-filename="enemy1.png"
   inkscape:export-xdpi="120"
   inkscape:export-ydpi="120"
   inkscape:version="1.2.2 (b0a8486541, 2022-12-01)"
   xmlns:inkscape="http://www.inkscape.org/namespaces/inkscape"
   xmlns:sodipodi="http://sodipodi.sourceforge.net/DTD/sodipodi-0.dtd"
   xmlns="http://www.w3.org/2000/svg"
   xmlns:svg="http://www.w3.org/2000/svg">
  <defs
     id="defs437" />
  <sodipodi:namedview
     id="namedview435"
     pagecolor="#505050"
     bordercolor="#eeeeee"
     borderopacity="1"
     inkscape:showpageshadow="0"
     inkscape:pageopacity="0"
     inkscape:pagecheckerboard="0"
     inkscape:deskcolor="#505050"
     showgrid="false"
     inkscape:zoom="0.96875"
     inkscape:cx="258.58065"
     inkscape:cy="297.29032"
     inkscape:window-width="1366"
     inkscape:window-height="699"
     inkscape:window-x="0"
     inkscape:window-y="0"
     inkscape:window-maximized="1"
     inkscape:current-layer="svg433" />
  <path
     id="rect460"
     style="fill:#ffffff;stroke-width:4.19151;stroke-linecap:square;paint-order:stroke fill markers"
     d="m 257.24167,108.47358 c -19.66671,-0.14389 -35.95377,11.06324 -36.1185,25.03114 0,0 1.20667,27.43206 3.33298,64.82106 l -9.16229,1.05865 -211.3446561,6.21108 -3.0351449,13.68658 13.261501,45.91706 167.03587,18.33271 49.62637,5.33925 c 2.01904,23.73569 4.28154,46.76443 6.86089,66.03675 l -85.20066,32.62848 1.91694,30.42456 97.94773,-11.34185 100.77981,12.73082 2.91061,-30.28648 -87.36129,-35.03007 c 3.36306,-19.99882 6.5462,-43.81841 9.38702,-68.30024 l 219.97898,-21.28663 14.85623,-45.79793 -2.57216,-13.7678 -211.25258,-8.7345 -11.73445,-1.89799 c 3.06021,-33.63791 4.88918,-57.16287 5.15785,-60.22907 0.24117,-14.26831 -16.10026,-25.46394 -35.27105,-25.54558 z" />
  <!--!Font Awesome Free 6.7.2 by @fontawesome - https://fontawesome.com License - https://fontawesome.com/license/free Copyright 2025 Fonticons, Inc.-->
</svg>
